<?xml version="1.0" encoding="iso-8859-1"?>
<!-- Generator: Adobe Illustrator 19.0.0, SVG Export Plug-In . SVG Version: 6.00 Build 0)  -->
<svg version="1.1" id="Capa_1" xmlns="http://www.w3.org/2000/svg" xmlns:xlink="http://www.w3.org/1999/xlink" x="0px" y="0px"
	 viewBox="0 0 450.114 450.114" style="enable-background:new 0 0 450.114 450.114;" xml:space="preserve">
<g>
	<path style="fill:#3E425B;" d="M213.554,288.307c-7.758,6.251-14.753,13.393-20.84,21.28c-6.248,8.048-11.801,16.612-16.6,25.6
		c13.593,14.903,19.93,35.038,17.32,55.04c0.023,0.266,0.023,0.534,0,0.8c-5.255,37.229-39.469,63.312-76.76,58.52h-0.84
		c-37.247-5.255-63.336-39.494-58.52-76.8c-0.025-0.279-0.025-0.561,0-0.84c5.327-37.6,40.127-63.761,77.726-58.434
		c2.34,0.332,4.661,0.783,6.954,1.354l3.64,1l50.36-77.88c1.404-2.249,4.365-2.934,6.614-1.53c0.891,0.556,1.574,1.388,1.946,2.37
		l11.28,26.48l8,3.12c4.68,1.8,5.76,4.56,4.36,8c-1.08,2.84-4.4,4.84-8.28,7.2c-2.286,1.319-4.49,2.775-6.6,4.36 M161.314,353.627
		c-15.194-19.89-43.636-23.696-63.526-8.502c-9.368,7.156-15.579,17.682-17.314,29.342v1.12
		c-2.976,24.401,14.043,46.726,38.36,50.32h1.12c24.855,2.755,47.238-15.161,49.992-40.016c1.257-11.337-1.812-22.731-8.592-31.904
		L161.314,353.627z M356.314,7.227l-100,235.2c-1.023,2.445-3.835,3.598-6.281,2.575c-0.905-0.379-1.673-1.026-2.199-1.855
		l-25.84-40.24c-1.073-1.611-1.073-3.709,0-5.32l125.88-194.96c1.27-2.331,4.189-3.19,6.52-1.92
		C356.725,1.977,357.584,4.896,356.314,7.227L356.314,7.227L356.314,7.227z"/>
	<path style="fill:#D29B88;" d="M362.594,353.987c-15.194-19.89-43.636-23.696-63.526-8.502
		c-9.368,7.156-15.579,17.682-17.314,29.342v1.12c-2.976,24.401,14.043,46.726,38.36,50.32h1.12
		c24.84,2.893,47.321-14.898,50.214-39.738C372.798,374.947,369.626,363.29,362.594,353.987 M207.794,271.107l-112-264
		c-1.27-2.331-0.411-5.25,1.92-6.52c2.331-1.27,5.25-0.411,6.52,1.92l202.08,313.32l3.64-1.04c2.49-0.646,5.014-1.153,7.56-1.52
		c37.723-3.962,71.516,23.407,75.479,61.13c3.782,36.005-21.034,68.763-56.719,74.87h-0.84c-37.306,4.816-71.545-21.273-76.8-58.52
		c-0.022-0.266-0.022-0.534,0-0.8c-2.615-20.002,3.722-40.14,17.32-55.04c-28.84-53.04-61.96-60.4-64.44-60.92
		C209.856,273.742,208.446,272.651,207.794,271.107L207.794,271.107z"/>
	<path style="fill:#FFFFFF;" d="M228.994,235.147c7.555-0.03,13.704,6.071,13.734,13.626c0.014,3.67-1.446,7.192-4.054,9.774
		c-5.339,5.346-14,5.352-19.346,0.014c-0.005-0.005-0.009-0.009-0.014-0.014c-5.346-5.339-5.352-14-0.014-19.346
		c0.005-0.005,0.009-0.009,0.014-0.014l0.32-0.32C222.167,236.482,225.515,235.151,228.994,235.147"/>
</g>
<g>
</g>
<g>
</g>
<g>
</g>
<g>
</g>
<g>
</g>
<g>
</g>
<g>
</g>
<g>
</g>
<g>
</g>
<g>
</g>
<g>
</g>
<g>
</g>
<g>
</g>
<g>
</g>
<g>
</g>
</svg>
